<?xml version="1.0" standalone="no"?>
<!DOCTYPE svg PUBLIC "-//W3C//DTD SVG 20010904//EN"
 "http://www.w3.org/TR/2001/REC-SVG-20010904/DTD/svg10.dtd">
<svg version="1.0" xmlns="http://www.w3.org/2000/svg"
 width="700.000000pt" height="700.000000pt" viewBox="0 0 700.000000 700.000000"
 preserveAspectRatio="xMidYMid meet">
<metadata>
Created by potrace 1.14, written by Peter Selinger 2001-2017
</metadata>
<g transform="translate(0.000000,700.000000) scale(0.100000,-0.100000)"
fill="#000000" stroke="none">
<path d="M3287 6734 c-1 -1 -47 -5 -102 -8 -155 -10 -193 -15 -293 -42 -117
-31 -222 -70 -337 -124 -270 -127 -418 -181 -538 -196 -208 -26 -428 -154
-577 -334 -88 -106 -132 -193 -169 -333 -34 -129 -44 -231 -38 -371 8 -179 35
-273 192 -676 51 -131 131 -363 139 -404 3 -12 18 -77 35 -146 16 -69 32 -142
35 -164 4 -21 22 -73 40 -116 19 -43 51 -131 71 -196 21 -66 39 -121 41 -123
1 -2 39 24 83 57 92 69 241 154 356 203 44 18 81 34 82 34 1 0 -12 38 -28 85
-26 73 -95 298 -104 340 -2 8 -12 51 -23 95 -25 96 -75 319 -87 385 -2 14 -14
70 -25 125 -30 141 -29 135 -40 190 -6 28 -12 59 -14 70 -16 79 -70 277 -99
358 -39 108 -73 171 -122 226 -60 67 -67 149 -21 239 29 58 88 127 120 143
l21 10 -21 -18 c-52 -47 -112 -153 -109 -195 2 -32 16 -47 82 -87 121 -74 161
-159 218 -456 2 -11 18 -105 35 -210 17 -104 42 -244 55 -310 13 -66 27 -136
30 -155 3 -19 10 -60 15 -90 5 -30 12 -68 14 -85 8 -50 36 -208 41 -235 3 -14
12 -60 20 -104 22 -114 66 -290 75 -299 4 -5 43 3 86 17 43 14 118 35 166 47
l87 21 -18 37 c-26 51 -75 208 -105 336 -15 65 -42 213 -51 285 -3 25 -8 56
-10 70 -4 24 -8 59 -20 170 -11 113 -15 147 -21 220 -3 41 -7 86 -9 100 -1 14
-6 59 -9 100 -42 440 -96 646 -222 835 -18 28 -35 64 -38 80 -15 76 46 122
146 111 78 -8 100 -21 38 -22 -73 -2 -106 -19 -124 -65 -9 -22 -16 -45 -16
-52 0 -7 23 -49 51 -92 45 -71 79 -138 133 -257 24 -53 85 -242 103 -318 46
-198 64 -347 79 -640 13 -282 15 -315 28 -460 12 -128 43 -298 73 -391 l14
-46 47 9 c26 4 58 10 71 13 13 2 69 9 125 15 56 6 112 13 126 14 29 3 29 7 -2
110 -11 38 -21 76 -23 85 -3 9 -23 88 -45 176 -22 88 -43 172 -45 187 -3 16
-12 59 -20 96 -13 66 -52 283 -61 352 -3 19 -7 44 -8 55 -2 11 -7 47 -11 80
-4 33 -8 71 -10 85 -2 14 -7 52 -10 85 -4 33 -8 74 -10 91 -25 216 -23 495 4
654 5 30 12 71 16 90 18 109 71 232 124 293 64 72 176 108 276 87 39 -7 38 -8
-20 -9 -122 -2 -173 -33 -208 -127 -11 -27 -28 -71 -39 -98 -11 -27 -21 -56
-23 -65 -2 -9 -10 -46 -19 -82 -8 -37 -19 -95 -23 -130 -10 -78 -10 -379 -1
-434 11 -63 26 -166 33 -215 3 -25 8 -56 11 -70 2 -14 6 -38 8 -55 8 -57 17
-120 26 -175 11 -64 41 -264 45 -300 5 -38 72 -468 98 -620 l23 -135 210 -1
211 -1 -3 31 c-3 29 -6 49 -18 136 -6 37 -12 91 -21 175 -3 28 -8 70 -11 95
-2 25 -7 70 -9 100 -3 30 -8 96 -12 145 -10 119 -10 638 0 740 12 121 28 223
53 338 8 39 17 80 19 90 31 146 142 409 237 560 44 70 45 70 -1 -73 -19 -61
-54 -201 -65 -265 -3 -16 -10 -51 -15 -79 -6 -28 -13 -69 -16 -91 -3 -22 -10
-67 -15 -100 -15 -98 -18 -127 -25 -190 -4 -33 -8 -71 -10 -85 -2 -14 -7 -61
-11 -105 -4 -44 -8 -93 -10 -110 -6 -69 -18 -228 -29 -405 -4 -63 -9 -140 -12
-170 -7 -98 -11 -633 -4 -689 4 -37 11 -55 21 -56 8 -1 53 -5 100 -9 47 -3 96
-8 110 -10 14 -3 45 -7 70 -10 111 -15 139 -19 200 -32 35 -7 65 -12 66 -11 1
1 4 110 8 242 3 132 8 254 10 270 2 17 7 71 10 120 7 88 11 125 21 204 3 21 7
56 10 77 2 21 6 53 9 69 3 17 8 50 11 75 6 48 8 59 18 105 4 17 9 42 12 58 3
15 7 37 10 50 3 12 7 33 10 46 38 192 143 506 245 732 65 145 190 379 202 379
5 0 7 -3 4 -8 -2 -4 -7 -28 -11 -52 -24 -169 -106 -406 -240 -695 -120 -259
-205 -519 -220 -675 -3 -30 -7 -75 -10 -100 -2 -25 -7 -79 -11 -120 -3 -41 -7
-93 -10 -115 -2 -22 -6 -69 -9 -105 -3 -36 -7 -90 -10 -120 -10 -112 -26 -339
-29 -410 l-1 -34 75 -19 c41 -10 84 -20 95 -22 47 -11 226 -71 289 -97 38 -15
70 -27 72 -25 1 1 5 34 9 72 3 39 8 81 10 95 2 14 6 44 9 68 15 107 19 134 42
247 14 66 27 128 29 137 17 77 75 279 116 402 142 422 338 775 493 888 21 15
45 28 51 28 28 0 -262 -813 -583 -1635 l-129 -330 61 -34 c33 -18 75 -44 93
-58 19 -14 35 -24 37 -22 2 2 9 15 16 29 39 76 248 369 317 445 10 11 65 79
123 150 57 72 107 132 110 135 11 10 158 207 197 265 120 177 189 318 229 468
21 82 27 132 27 217 0 87 -17 127 -139 323 -109 175 -206 298 -339 432 -217
218 -451 367 -730 465 -128 45 -430 119 -630 154 -16 3 -39 8 -50 10 -11 2
-40 7 -65 10 -25 3 -54 8 -65 10 -11 2 -63 9 -115 15 -52 6 -113 14 -135 16
-76 10 -421 24 -428 19z m-1362 -664 c-27 -12 -43 -12 -25 0 8 5 22 9 30 9 10
0 8 -3 -5 -9z"/>
<path d="M3129 3675 c-2 -1 -40 -6 -84 -10 -81 -6 -129 -12 -175 -20 -14 -3
-43 -7 -65 -11 -22 -3 -48 -7 -57 -10 -10 -3 -30 -7 -45 -10 -277 -49 -599
-202 -760 -361 -53 -52 -62 -65 -53 -80 5 -10 37 -96 70 -192 65 -188 76 -212
117 -238 47 -31 106 -22 225 36 59 28 111 51 115 51 5 0 22 7 38 16 80 42 356
122 480 139 22 3 47 8 55 10 60 17 370 24 481 12 363 -40 709 -157 1034 -347
172 -101 204 -109 266 -67 43 28 66 76 74 150 4 32 8 68 11 80 3 12 7 116 9
231 l5 209 -25 33 c-112 146 -599 314 -1045 360 -36 3 -76 8 -90 11 -30 5
-576 13 -581 8z"/>
<path d="M2491 2441 c-23 -18 -24 -20 -9 -42 28 -42 82 -92 115 -105 56 -24
112 -17 243 31 166 61 192 59 256 -14 31 -34 32 -35 58 -18 14 10 26 21 26 25
0 16 -94 105 -126 118 -52 22 -81 18 -222 -31 -72 -25 -143 -45 -157 -45 -41
0 -91 28 -117 66 -26 39 -34 41 -67 15z"/>
<path d="M4859 2306 c-41 -13 -79 -77 -59 -101 32 -39 122 -81 258 -122 159
-47 218 -77 265 -135 35 -43 30 -56 -33 -88 -20 -10 -94 -62 -164 -115 -70
-52 -149 -106 -174 -119 -56 -29 -132 -98 -133 -123 -4 -54 24 -86 74 -86 40
0 143 68 349 231 70 55 170 130 223 167 98 68 128 106 117 147 -13 52 -224
193 -367 247 -33 13 -69 27 -80 32 -115 50 -145 60 -190 67 -34 6 -65 5 -86
-2z"/>
<path d="M1770 2265 c-86 -57 -154 -93 -275 -145 -55 -24 -112 -52 -127 -62
-14 -10 -29 -18 -32 -18 -15 0 -148 -94 -170 -121 -44 -52 -60 -144 -28 -171
9 -9 51 -29 92 -46 90 -36 285 -126 395 -182 156 -81 180 -95 220 -126 52 -40
68 -45 117 -38 59 10 108 60 108 110 0 22 -6 46 -13 55 -7 9 -75 43 -152 77
-195 85 -337 151 -423 196 l-73 39 43 44 c60 61 119 97 239 145 142 56 289
153 289 190 -1 55 -38 88 -104 93 -35 3 -51 -3 -106 -40z"/>
<path d="M2782 2074 c-98 -28 -155 -106 -155 -209 1 -106 68 -234 143 -271
120 -58 259 7 290 137 36 149 0 282 -90 326 -55 27 -131 34 -188 17z m117
-171 c53 -44 24 -133 -43 -133 -32 0 -75 29 -77 53 -7 76 65 125 120 80z"/>
<path d="M3959 2076 c-55 -19 -97 -54 -119 -96 -28 -54 -32 -93 -19 -163 33
-184 170 -282 310 -223 47 20 102 84 119 138 33 111 -1 269 -67 316 -57 40
-155 53 -224 28z m111 -188 c27 -29 26 -81 -2 -108 -44 -41 -114 -14 -124 47
-11 67 79 111 126 61z"/>
<path d="M3290 1324 c33 -79 98 -147 160 -167 29 -9 62 -17 74 -17 62 1 152
74 196 159 31 62 24 66 -27 12 -68 -70 -103 -85 -194 -85 -66 -1 -81 3 -117
26 -22 15 -53 44 -68 65 -44 60 -46 61 -24 7z"/>
<path d="M3108 1085 c-2 -1 -28 -5 -59 -8 -69 -8 -118 -27 -274 -106 -135 -69
-174 -82 -260 -86 -94 -4 -201 35 -299 110 -27 20 -51 34 -54 30 -15 -15 -6
-211 13 -270 67 -214 273 -345 545 -347 52 0 109 2 125 5 17 4 46 9 65 12 131
21 305 113 380 203 44 53 44 52 69 105 61 125 23 260 -86 313 -34 16 -158 45
-165 39z"/>
<path d="M3742 1078 c-145 -21 -224 -105 -218 -233 10 -234 311 -437 650 -437
302 -1 521 147 570 385 12 58 14 222 3 233 -3 3 -26 -11 -53 -31 -100 -77
-204 -114 -304 -110 -77 4 -143 27 -285 101 -57 30 -124 62 -147 70 -61 21
-154 31 -216 22z"/>
</g>
</svg>
